<?xml version="1.0" standalone="no"?>
<!DOCTYPE svg PUBLIC "-//W3C//DTD SVG 1.1//EN" "http://www.w3.org/Graphics/SVG/1.1/DTD/svg11.dtd">
<svg t="1712505894735" class="icon" viewBox="0 0 1024 1024" version="1.1"
    xmlns="http://www.w3.org/2000/svg" p-id="1460" xmlns:xlink="http://www.w3.org/1999/xlink"
    width="200" height="200">
    <style>
        .icon {
        filter: invert(1);
        }
    </style>
    <path
        d="M526.72 766.421333l-72.021333 45.824-90.965334-142.933333c-18.773333 59.818667-49.962667 113.706667-91.221333 163.2-17.152 20.608-34.986667 39.168-55.509333 58.709333-6.613333 6.229333-33.066667 30.549333-37.461334 34.986667l-60.330666-60.373333c5.930667-5.930667 33.578667-31.36 38.997333-36.522667 18.346667-17.408 33.962667-33.706667 48.768-51.413333C260.992 713.045333 293.546667 640.853333 298.154667 554.666667H128v-85.333334h170.666667V298.666667h-37.034667c-29.397333 54.016-66.474667 94.805333-111.701333 121.941333L106.069333 347.434667c59.562667-35.754667 103.509333-111.061333 129.664-228.693334l83.285334 18.517334c-5.973333 27.008-12.928 52.394667-20.864 76.074666h192.554666v85.333334H384v170.666666h106.666667v85.333334H391.936l134.784 211.754666z m163.754667-2.986666L738.133333 725.333333h72.618667V298.666667h-170.666667v426.666666h31.402667l19.029333 38.101334zM554.709333 213.333333h341.333334v597.333334h-128l-106.666667 85.333333-42.666667-85.333333H554.666667V213.333333z"
        p-id="1461"></path>
</svg>